<svg width="32" height="32" viewBox="0 0 32 32" fill="none" xmlns="http://www.w3.org/2000/svg">
<path d="M0 16C0 7.16344 7.16344 0 16 0C24.8366 0 32 7.16344 32 16C32 24.8366 24.8366 32 16 32C7.16344 32 0 24.8366 0 16Z" fill="#E0EFFE"/>
<path d="M16.6666 12.6667H11.4666C10.7198 12.6667 10.3465 12.6667 10.0613 12.812C9.81038 12.9398 9.60641 13.1438 9.47858 13.3947C9.33325 13.6799 9.33325 14.0533 9.33325 14.8V17.2C9.33325 17.9467 9.33325 18.3201 9.47858 18.6053C9.60641 18.8562 9.81038 19.0602 10.0613 19.188C10.3465 19.3333 10.7198 19.3333 11.4666 19.3333H16.6666M19.3333 12.6667H20.5333C21.28 12.6667 21.6534 12.6667 21.9386 12.812C22.1895 12.9398 22.3934 13.1438 22.5213 13.3947C22.6666 13.6799 22.6666 14.0533 22.6666 14.8V17.2C22.6666 17.9467 22.6666 18.3201 22.5213 18.6053C22.3934 18.8562 22.1895 19.0602 21.9386 19.188C21.6534 19.3333 21.28 19.3333 20.5333 19.3333H19.3333M19.3333 22L19.3333 10M20.9999 10L17.6666 10M20.9999 22L17.6666 22" stroke="#0070CC" stroke-width="1.33333" stroke-linecap="round" stroke-linejoin="round"/>
</svg>
